<svg xmlns="http://www.w3.org/2000/svg" width="1303.334" height="1948.68" viewBox="0 0 1303.334 1948.68">
  <g id="surface1" transform="translate(-0.031)">
    <path id="Path_1" data-name="Path 1" d="M338.962,1948.68c-216.621-713.8,241.092-974.429,241.092-974.429C548.03,1355.141,764.48,1651.884,764.48,1651.884c79.608-24.028,231.554-136.275,231.554-136.275,0,136.275-80.175,432.9-80.175,432.9s280.67-217.022,369.021-577.467c88.238-360.447-168.072-722.314-168.072-722.314A966.553,966.553,0,0,1,876.85,1346.453a138.323,138.323,0,0,0,21.009-32.366c30.377-60.755,79.153-218.663,50.591-584.335C908.249,216.45,443.154,0,443.154,0c40.087,312.75-80.118,384.807-361.7,978.454C-200.12,1571.995,338.962,1948.68,338.962,1948.68Zm0,0" transform="translate(0)" fill="#01ebf3"/>
  </g>
</svg>
